HIERARCHY
ROOT hip
{
	OFFSET 0.000000 0.000000 0.000000 
	CHANNELS 6 Xposition Yposition Zposition Xrotation Zrotation Yrotation
	JOINT abdomen
	{
		OFFSET 0.000000 3.402643 0.000000 
		CHANNELS 3 Xrotation Zrotation Yrotation
		JOINT chest
		{
			OFFSET 0.000000 8.438565 -0.680529 
			CHANNELS 3 Xrotation Zrotation Yrotation
			JOINT neck
			{
				OFFSET 0.000000 10.207942 -0.272212 
				CHANNELS 3 Xrotation Zrotation Yrotation
				JOINT head
				{
					OFFSET 0.000000 3.130431 0.000000 
					CHANNELS 3 Xrotation Zrotation Yrotation
					End Site
					{
						OFFSET 0.000000 3.130435 0.000000 
					}
				}
			}
			JOINT lCollar
			{
				OFFSET 3.470700 6.669187 -0.816635 
				CHANNELS 3 Yrotation Zrotation Xrotation
				JOINT lShldr
				{
					OFFSET 3.198488 0.000000 0.000000 
					CHANNELS 3 Zrotation Yrotation Xrotation
					JOINT lForeArm
					{
						OFFSET 10.139888 0.000000 0.000000 
						CHANNELS 3 Yrotation Zrotation Xrotation
						JOINT lHand
						{
							OFFSET 8.370511 0.000000 0.000000 
							CHANNELS 3 Zrotation Yrotation Xrotation
							End Site
							{
								OFFSET 4.083176 0.000000 0.000000 
							}
						}
					}
				}
			}
			JOINT rCollar
			{
				OFFSET -3.470700 6.669187 -0.816635 
				CHANNELS 3 Yrotation Zrotation Xrotation
				JOINT rShldr
				{
					OFFSET -3.198488 0.000000 0.000000 
					CHANNELS 3 Zrotation Yrotation Xrotation
					JOINT rForeArm
					{
						OFFSET -10.139888 0.000000 0.000000 
						CHANNELS 3 Yrotation Zrotation Xrotation
						JOINT rHand
						{
							OFFSET -8.370511 0.000000 0.000000 
							CHANNELS 3 Zrotation Yrotation Xrotation
							End Site
							{
								OFFSET -4.083176 0.000000 0.000000 
							}
						}
					}
				}
			}
		}
	}
	JOINT lThigh
	{
		OFFSET 5.308129 -1.633274 1.361059 
		CHANNELS 3 Xrotation Zrotation Yrotation
		JOINT lShin
		{
			OFFSET -2.041588 -20.007561 0.000000 
			CHANNELS 3 Xrotation Zrotation Yrotation
			JOINT lFoot
			{
				OFFSET 0.000000 -19.190928 -1.224953 
				CHANNELS 3 Xrotation Yrotation Zrotation
				End Site
				{
					OFFSET 0.000000 -2.449906 4.627600 
				}
			}
		}
	}
	JOINT rThigh
	{
		OFFSET -5.308129 -1.633274 1.361059 
		CHANNELS 3 Xrotation Zrotation Yrotation
		JOINT rShin
		{
			OFFSET 2.041588 -20.007561 0.000000 
			CHANNELS 3 Xrotation Zrotation Yrotation
			JOINT rFoot
			{
				OFFSET 0.000000 -19.190928 -1.224953 
				CHANNELS 3 Xrotation Yrotation Zrotation
				End Site
				{
					OFFSET 0.000000 -2.449906 4.627600 
				}
			}
		}
	}
}
MOTION
Frames: 13
Frame Time: 0.033333
-21.018894 33.258339 33.699806 -166.447128 177.588730 -5.366017 0.000000 0.000000 0.000000 22.390604 2.285143 0.195547 26.061172 2.868141 -2.600753 -22.192715 -0.087773 -2.968761 -4.881245 19.730034 21.812870 7.535800 3.453771 -40.970303 0.113259 7.873426 8.407338 -61.852341 -2.645423 0.245997 4.391050 -14.501844 21.353186 -9.699340 -25.075504 -13.326559 0.563476 -1.335689 -12.531322 56.230476 0.672699 -1.260254 -46.360718 43.451469 0.180390 97.876389 3.640392 -10.197802 -33.478607 5.037129 -16.614883 -35.185646 -49.247822 -9.595257 95.570045 -5.388013 1.601573 -30.685448 -7.233969 25.968470 
-21.007454 33.179794 33.684944 -166.764526 177.423355 -5.346917 0.000000 0.000000 0.000000 22.088150 2.490171 0.410618 26.259329 2.907780 -2.317416 -22.189211 -0.341332 -2.988345 -4.559458 17.670813 21.410742 8.209998 1.660165 -42.937370 0.149715 8.367463 9.768385 -60.518188 -2.179657 -0.132663 4.264241 -12.358197 20.936985 -9.427403 -23.740135 -16.797951 0.530908 -1.842575 -11.537646 53.301754 0.106454 -1.687123 -47.011829 43.779327 -0.119843 98.209145 3.590646 -10.513700 -33.666943 5.004880 -16.417801 -35.380333 -49.188366 -9.683265 95.814621 -5.312052 1.926957 -30.989439 -7.274244 25.808182 
-20.995628 33.065369 33.667774 -166.719742 177.383606 -5.142048 0.000000 0.000000 0.000000 22.069157 2.577972 0.625685 26.169460 3.064440 -2.053590 -21.719187 -0.370602 -2.949284 -4.258624 16.265387 21.320419 7.701397 -0.978238 -45.194283 0.188750 8.793340 11.447239 -57.772160 -1.422606 -0.746817 3.986336 -9.577936 20.772278 -8.971265 -22.141100 -21.185730 0.470502 -2.452661 -9.988156 48.938137 -0.281728 -2.047302 -47.369671 43.874012 -0.567965 98.526848 3.561206 -10.966553 -33.931644 4.965639 -16.228025 -35.155228 -49.392143 -9.737677 96.096550 -5.341147 2.464819 -31.432434 -7.335600 25.751213 
-20.988062 32.944935 33.607037 -166.234894 177.325089 -5.103025 0.000000 0.000000 0.000000 22.383396 2.538887 0.674897 25.860619 3.064569 -1.984806 -20.649052 -0.497430 -2.851709 -4.253431 14.662941 21.537752 6.431802 -3.236669 -46.761925 0.210080 9.140593 12.386505 -51.690483 -0.146101 -1.720967 3.975024 -6.817524 20.981024 -7.940581 -19.967571 -26.024488 0.414859 -2.852772 -8.261159 40.894154 -0.147903 -2.246187 -47.133663 44.136482 -0.678020 98.878365 3.609767 -11.210732 -34.086765 4.975886 -16.151554 -34.859486 -49.523502 -9.587653 96.406006 -5.439545 2.219372 -31.400436 -7.437257 26.012739 
-21.003288 32.851246 33.557140 -165.818558 177.363754 -5.044046 0.000000 0.000000 0.000000 22.594442 2.548695 0.586661 25.455576 2.888859 -2.004330 -19.462456 -0.390114 -2.929819 -4.281673 12.819540 21.657154 4.693954 -5.503560 -47.359653 0.242990 9.352307 13.945227 -45.383625 0.958495 -2.429748 3.722867 -3.988351 21.084955 -7.001770 -17.106739 -29.348059 0.374138 -2.824918 -7.351799 32.944832 -0.574146 -2.616905 -46.902645 44.168533 -0.647798 99.196129 3.659698 -11.016625 -34.129463 4.991937 -16.210474 -34.780972 -49.659771 -9.404265 96.640068 -5.556655 1.627369 -31.110487 -7.479174 26.440609 
-21.030994 32.774406 33.521606 -165.738129 177.228027 -5.152253 0.000000 0.000000 0.000000 22.393044 2.548750 0.450077 24.943350 2.957105 -2.043334 -17.739355 -0.751180 -2.597945 -4.130804 11.165597 21.398977 2.291395 -7.904763 -47.687222 0.256393 9.288647 14.020687 -38.066879 2.692805 -3.232299 3.910089 -0.746674 20.832882 -6.275425 -13.995432 -31.310768 0.278812 -2.601282 -4.858150 21.998554 -1.531628 -3.122899 -46.916275 44.300461 -0.841196 99.476128 3.688294 -11.090481 -34.392071 5.059555 -16.231754 -34.997505 -49.545696 -9.110961 96.731476 -5.614783 1.235272 -30.838717 -7.473044 26.751453 
-21.069302 32.710247 33.476856 -165.654251 177.189163 -5.162002 0.000000 0.000000 0.000000 22.279980 2.714806 0.303320 23.830980 2.683874 -2.023381 -14.664069 -0.731669 -2.597943 -4.188662 8.135087 21.205406 0.449020 -9.714996 -48.022034 0.277855 9.268787 12.726067 -26.563158 3.294939 -3.506444 4.199309 2.095728 20.635666 -5.428351 -11.157434 -31.510118 0.214015 -2.038969 -3.605708 10.188880 -2.107948 -3.362295 -46.871788 44.264915 -1.039648 99.763756 3.718438 -11.221502 -34.727142 5.102921 -16.212486 -34.928684 -49.652020 -9.020054 96.870354 -5.615055 1.442612 -30.956490 -7.523877 26.763781 
-21.113148 32.650204 33.413174 -165.278992 177.159378 -5.025446 0.000000 0.000000 0.000000 22.292782 2.831978 0.352098 23.086576 2.937514 -2.082348 -12.426459 -1.297705 -2.383528 -4.777755 6.136081 21.174349 -2.236146 -11.600596 -47.216568 0.322239 9.246923 14.937829 -15.525389 2.069623 -3.287343 4.282640 4.547372 20.550312 -4.006200 -8.255368 -31.281160 0.216920 -1.236482 -3.545536 -0.806880 -3.230099 -3.533710 -46.623329 44.183277 -1.224810 99.978020 3.757416 -11.207016 -34.908539 5.144558 -16.254049 -34.335087 -50.017609 -9.271152 96.937218 -5.644002 1.974209 -31.177942 -7.565263 26.576622 
-21.148918 32.528614 33.377003 -165.253845 177.287231 -5.347348 0.000000 0.000000 0.000000 22.071676 2.568176 0.684658 22.129492 3.259970 -1.877518 -10.622352 -1.639482 -2.139752 -5.211644 5.370300 20.974987 -6.025748 -13.626482 -45.616325 0.323204 8.702854 13.800981 -4.881260 2.025043 -3.414171 4.798109 7.669678 20.209604 -3.182775 -5.941970 -30.734810 0.215592 -0.525225 -4.248101 -13.481833 -3.033575 -3.538324 -46.412079 44.400848 -0.957576 100.326256 3.747044 -11.325096 -35.201817 5.184718 -16.260197 -35.054314 -50.187534 -8.488818 97.263962 -5.703035 2.342124 -31.357361 -7.563955 26.501526 
-21.168053 32.459652 33.358906 -165.080368 177.268768 -5.562874 0.000000 0.000000 0.000000 22.391666 2.431342 0.899286 20.577587 3.513721 -1.887805 -8.648715 -2.078833 -1.983950 -5.058481 4.273211 21.198887 -9.075504 -16.076923 -45.881607 0.358177 8.716438 11.947495 5.292814 2.176178 -3.542957 4.656897 10.814176 20.419943 -3.088845 -3.144089 -30.028154 0.205798 0.303976 -5.488381 -25.565605 -3.398996 -3.515379 -46.112553 44.423111 -0.945063 100.582283 3.796162 -11.223417 -35.471180 5.274425 -16.393869 -35.369846 -50.172737 -8.033639 97.411621 -5.732504 2.296327 -31.229834 -7.580199 26.614723 
-21.176262 32.422005 33.376339 -164.597672 176.773651 -5.672643 0.000000 0.000000 0.000000 22.792414 2.743527 1.212354 19.978455 3.748405 -1.673371 -7.730723 -2.293465 -2.042897 -4.907796 2.946969 21.511204 -11.436730 -18.265203 -45.388729 0.430310 8.886239 14.388327 11.244841 1.350230 -3.674188 4.876010 13.259824 20.670242 -2.220656 -0.804513 -30.149231 0.157956 0.828548 -5.479202 -31.597343 -2.855058 -3.644910 -45.942478 44.595570 -1.629063 100.744720 3.863529 -11.268866 -35.678131 5.361785 -16.563749 -34.783585 -49.665009 -8.109169 97.424255 -5.721923 2.229846 -31.240965 -7.568171 26.657352 
-21.218557 32.379951 33.379086 -164.483627 176.666992 -5.712750 0.000000 0.000000 0.000000 22.823196 2.762804 1.437644 19.215494 3.904684 -1.624645 -6.392596 -2.019820 -2.325871 -5.067163 2.284567 21.508820 -14.627166 -20.092224 -43.764271 0.473162 8.467579 14.895533 15.822835 0.199208 -3.891731 5.102206 15.371678 20.604643 -1.067986 1.167854 -29.615158 0.116422 1.430952 -5.431405 -37.255859 -2.921347 -3.657004 -45.937004 44.433159 -1.898371 100.942093 3.903100 -11.177006 -35.865417 5.428187 -16.643377 -34.617111 -49.517471 -7.988664 97.534294 -5.731956 2.675556 -31.575954 -7.626921 26.494970 
-21.245428 32.331974 33.406120 -164.219864 176.696426 -5.761496 0.000000 0.000000 0.000000 23.134155 2.665155 1.456683 18.254042 3.650827 -1.653259 -5.419087 -1.248587 -2.725451 -5.064731 1.310300 21.740639 -17.360588 -21.847246 -42.754585 0.676307 8.377511 15.834847 19.036810 -0.138214 -4.034393 5.146597 16.941572 20.831234 -0.140077 3.316211 -28.208349 0.014364 2.283708 -5.268043 -41.166424 -2.905542 -3.688256 -45.780720 44.188881 -1.981322 101.087143 4.000327 -10.570161 -35.783268 5.561488 -17.035282 -34.599857 -49.599712 -7.711464 97.631050 -5.750555 2.948996 -31.691187 -7.606381 26.395294 
